{"title":"The New Adventures of Pippi Longstocking (1988).m4v","uid":8620058,"size":1455898006,"categoryP":"video","categoryS":"movies","magnet":"?xt=urn:btih:4a3f816a0b278691b794801328c2bf868728aa66&amp;dn=The+New+Adventures+of+Pippi+Longstocking+%281988%29.m4v&amp;tr=udp%3A%2F%2Ftracker.openbittorrent.com%3A80&amp;tr=udp%3A%2F%2Fopen.demonii.com%3A1337&amp;tr=udp%3A%2F%2Ftracker.coppersurfer.tk%3A6969&amp;tr=udp%3A%2F%2Fexodus.desync.com%3A6969","seeders":7,"leechers":2,"uploader":"Malvaudo","files":-1,"time":1372347716,"description":"A rip from my DVD.  I didn't see it on here, so I thought someone else may be interested.\n\nH.264 video, HE-AAC stereo audio, fully tagged and chaptered\n\n\nTechnical Details:\n\nGeneral\nComplete name : /Volumes/Downloads/Torrents/Downloading/The New Adventures of Pippi Longstocking (1988).m4v\nFormat : MPEG-4\nFormat profile : Base Media / Version 2\nCodec ID : mp42\nFile size : 1.36 GiB\nDuration : 1h 41mn\nOverall bit rate mode : Variable\nOverall bit rate : 1 919 Kbps\nMovie name : The New Adventures of Pippi Longstocking\nPerformer : Tami Erin, David Seaman, Cory Crow, Eileen Brennan, Dennis Dugan, Dianne Hull\nGenre : Fantasy, Adventure, Family, Musical\nRecorded date : 1988-07-28\nEncoded date : UTC 2013-06-27 03:42:47\nTagged date : UTC 2013-06-27 12:55:47\nWriting application : HandBrake 0.9.9 2013051800\nCover : Yes\ndesc : After her father's ship is carried off by a sudden storm, the spunky Pippi Longstocking is stranded with her horse, Alfonso,and her pet monkey, Mr. Neilson, and takes up residence in the old family home, which is thought by neighborhood children to be haunted. Soon, two children, Tommy and his sister Anika, venture into the house only to meet up with Pippi. The three soon become friends and get into various adventures together, including cleaning the floor with scrubbing shoes, dodging the &quot;splunks&quot;, going down a waterfall in barrels, and helping Pippi with the problem of having to go to an orphanage. Older children will probably get the most out of this movie.\nldes : After her father's ship is carried off by a sudden storm, the spunky Pippi Longstocking is stranded with her horse, Alfonso,and her pet monkey, Mr. Neilson, and takes up residence in the old family home, which is thought by neighborhood children to be haunted. Soon, two children, Tommy and his sister Anika, venture into the house only to meet up with Pippi. The three soon become friends and get into various adventures together, including cleaning the floor with scrubbing shoes, dodging the &quot;splunks&quot;, going down a waterfall in barrels, and helping Pippi with the problem of having to go to an orphanage. Older children will probably get the most out of this movie.\nstik : 9\nrtng : 0\niTunEXTC : mpaa|G|100|\nVideo\nID : 1\nFormat : AVC\nFormat/Info : Advanced Video Codec\nFormat profile : &lt;a class=&quot;__cf_email__&quot; href=&quot;/cdn-cgi/l/email-protection&quot; data-cfemail=&quot;5b13323c331b176f756b&quot;&gt;[email&amp;#160;protected]&lt;/a&gt;&lt;script cf-hash='f9e31' type=&quot;text/javascript&quot;&gt;\n/* &lt;![CDATA[ */!function(){try{var t=&quot;currentScript&quot;in document?document.currentScript:function(){for(var t=document.getElementsByTagName(&quot;script&quot;),e=t.length;e--;)if(t[e].getAttribute(&quot;cf-hash&quot;))return t[e]}();if(t&amp;&amp;t.previousSibling){var e,r,n,i,c=t.previousSibling,a=c.getAttribute(&quot;data-cfemail&quot;);if(a){for(e=&quot;&quot;,r=parseInt(a.substr(0,2),16),n=2;a.length-n;n+=2)i=parseInt(a.substr(n,2),16)^r,e+=String.fromCharCode(i);e=document.createTextNode(e),c.parentNode.replaceChild(e,c)}}}catch(u){}}();/* ]]&gt; */&lt;/script&gt;\nFormat settings, CABAC : Yes\nFormat settings, ReFrames : 4 frames\nCodec ID : avc1\nCodec ID/Info : Advanced Video Coding\nDuration : 1h 41mn\nBit rate mode : Variable\nBit rate : 1 831 Kbps\nWidth : 716 pixels\nHeight : 480 pixels\nDisplay aspect ratio : 4:3\nFrame rate mode : Variable\nFrame rate : 24.000 fps\nMinimum frame rate : 19.969 fps\nMaximum frame rate : 30.000 fps\nColor space : YUV\nChroma subsampling : 4:2:0\nBit depth : 8 bits\nScan type : Progressive\nBits/(Pixel*Frame) : 0.222\nStream size : 1.29 GiB (95%)\nWriting library : x264 core 130 r2273 b3065e6\nEncoding settings : cabac=1 / ref=3 / deblock=1:0:0 / analyse=0x3:0x113 / me=hex / subme=7 / psy=1 / psy_rd=1.00:0.00 / mixed_ref=1 / me_range=16 / chroma_me=1 / trellis=1 / 8x8dct=1 / cqm=0 / deadzone=21,11 / fast_pskip=1 / chroma_qp_offset=-2 / threads=12 / lookahead_threads=2 / sliced_threads=0 / nr=0 / decimate=1 / interlaced=0 / bluray_compat=0 / constrained_intra=0 / bframes=3 / b_pyramid=2 / b_adapt=1 / b_bias=0 / direct=1 / weightb=1 / open_gop=0 / weightp=2 / keyint=300 / keyint_min=30 / scenecut=40 / intra_refresh=0 / rc_lookahead=40 / rc=crf / mbtree=1 / crf=20.0 / qcomp=0.60 / qpmin=0 / qpmax=69 / qpstep=4 / vbv_maxrate=25000 / vbv_bufsize=31250 / crf_max=0.0 / nal_hrd=none / ip_ratio=1.40 / aq=1:1.00\nLanguage : English\nEncoded date : UTC 2013-06-27 03:42:47\nTagged date : UTC 2013-06-27 04:06:58\nColor primaries : BT.601 NTSC\nTransfer characteristics : BT.709\nMatrix coefficients : BT.601\nAudio\nID : 2\nFormat : AAC\nFormat/Info : Advanced Audio Codec\nFormat profile : HE-AAC / LC\nCodec ID : 40\nDuration : 1h 41mn\nBit rate mode : Variable\nBit rate : 82.7 Kbps\nMaximum bit rate : 149 Kbps\nChannel(s) : 2 channels\nChannel positions : Front: L R\nSampling rate : 48.0 KHz / 24.0 KHz\nCompression mode : Lossy\nDelay relative to video : 67ms\nStream size : 59.8 MiB (4%)\nLanguage : English\nEncoded date : UTC 2013-06-27 03:42:47\nTagged date : UTC 2013-06-27 04:06:58\nText\nID : 3\nFormat : Timed Text\nMuxing mode : sbtl\nCodec ID : tx3g\nDuration : 1h 41mn\nBit rate mode : Variable\nBit rate : 87 bps\nDelay relative to video : 67ms\nStream size : 64.5 KiB (0%)\nLanguage : English\nEncoded date : UTC 2013-06-27 03:42:47\nTagged date : UTC 2013-06-27 04:06:58\nMenu #1\n00:00:00.000 : Start\n00:02:38.224 : &quot;We Live On The Seas&quot;\n00:05:02.768 : Foul weather ahead\n00:07:47.899 : Villa Villekulla\n00:11:24.515 : &quot;I live here.&quot;\n00:16:47.404 : &quot;Scrubbing Day&quot;\n00:21:11.267 : Mr. Blackhart\n00:23:21.163 : &quot;Pippi Longstocking&quot;\n00:25:57.485 : Orphans' Treat\n00:30:14.908 : Pippi Knievel\n00:32:11.824 : Splunk day\n00:33:31.503 : Miss Bannister\n00:39:07.305 : Two official-looking guys\n00:42:37.481 : Jake's autogyro\n00:44:15.612 : Pippi takes the cake\n00:51:56.238 : &quot;Running Away&quot;\n00:55:29.684 : Terror of the Caribbean\n01:00:10.764 : A swim before breakfast\n01:02:46.552 : &quot;Running Away&quot; (reprise)\n01:04:25.283 : Saved\n01:10:31.315 : Miss Messerschmidt\n01:12:09.546 : Bedtime stories\n01:15:03.786 : &quot;Mom...&quot;\n01:16:39.147 : &quot;A Sticky Situation&quot;\n01:22:19.186 : Fire!\n01:24:47.500 : Pippi saves the day\n01:28:20.012 : &quot;Merry Christmas Tree&quot;\n01:32:01.466 : Bestest Papa in the world\n","torrent":{"xt":"urn:btih:4a3f816a0b278691b794801328c2bf868728aa66","amp;dn":"The+New+Adventures+of+Pippi+Longstocking+%281988%29.m4v","amp;tr":["udp%3A%2F%2Ftracker.openbittorrent.com%3A80","udp%3A%2F%2Fopen.demonii.com%3A1337","udp%3A%2F%2Ftracker.coppersurfer.tk%3A6969","udp%3A%2F%2Fexodus.desync.com%3A6969"],"infoHash":"4a3f816a0b278691b794801328c2bf868728aa66","infoHashBuffer":{"type":"Buffer","data":[74,63,129,106,11,39,134,145,183,148,128,19,40,194,191,134,135,40,170,102]},"announce":[],"urlList":[]}}